<svg xmlns="http://www.w3.org/2000/svg" viewBox="0 0 64 64" width="64" height="64">
  <rect width="64" height="64" rx="12" fill="#BF5700"/>
  <g transform="translate(32,30) scale(0.34)" fill="white">
    <!-- UT Austin Longhorn silhouette -->
    <path d="M0,18 C-4,16 -7,12 -9,8 C-11,4 -14,-2 -18,-8 C-22,-14 -28,-20 -34,-26 C-38,-30 -44,-34 -50,-37 C-56,-40 -62,-42 -68,-43 C-74,-44 -80,-43 -84,-40 C-86,-38 -85,-36 -82,-35 C-78,-34 -72,-32 -66,-29 C-60,-26 -54,-22 -48,-18 C-42,-14 -36,-8 -32,-2 C-28,4 -24,10 -22,14 C-20,16 -18,17 -16,18 C-12,20 -8,22 -6,26 C-5,28 -5,30 -6,32 C-7,36 -8,40 -8,44 C-8,48 -7,52 -5,56 C-4,58 -2,60 0,62 C2,60 4,58 5,56 C7,52 8,48 8,44 C8,40 7,36 6,32 C5,30 5,28 6,26 C8,22 12,20 16,18 C18,17 20,16 22,14 C24,10 28,4 32,-2 C36,-8 42,-14 48,-18 C54,-22 60,-26 66,-29 C72,-32 78,-34 82,-35 C85,-36 86,-38 84,-40 C80,-43 74,-44 68,-43 C62,-42 56,-40 50,-37 C44,-34 38,-30 34,-26 C28,-20 22,-14 18,-8 C14,-2 11,4 9,8 C7,12 4,16 0,18 Z"/>
  </g>
</svg>
